<svg width="201" height="24" viewBox="0 0 201 24" fill="none" xmlns="http://www.w3.org/2000/svg">
<path d="M4.71899 11.396H11.095" stroke="#132450" stroke-width="1.5" stroke-linecap="round" stroke-linejoin="round"/>
<path d="M7.914 4L4.026 13.014" stroke="#132450" stroke-width="1.5" stroke-linecap="round" stroke-linejoin="round"/>
<path d="M11.789 13.014L7.914 4" stroke="#132450" stroke-width="1.5" stroke-linecap="round" stroke-linejoin="round"/>
<path d="M20 7.56201V13" stroke="#132450" stroke-width="1.5" stroke-linecap="round" stroke-linejoin="round"/>
<path d="M19.199 8.34897C20.267 9.41697 20.267 11.148 19.199 12.215C18.131 13.283 16.4 13.283 15.333 12.215C14.265 11.147 14.265 9.41597 15.333 8.34897C16.4 7.28097 18.132 7.28097 19.199 8.34897" stroke="#132450" stroke-width="1.5" stroke-linecap="round" stroke-linejoin="round"/>
<path d="M4 17H20" stroke="#132450" stroke-width="1.5" stroke-linecap="round" stroke-linejoin="round"/>
<path d="M16 21H4" stroke="#132450" stroke-width="1.5" stroke-linecap="round" stroke-linejoin="round"/>
<path d="M29.25 18.6641C28.8229 17.7891 28.6094 16.7786 28.6094 15.6328C28.6094 14.6172 28.7786 13.7031 29.1172 12.8906C29.4557 12.0729 29.9297 11.4062 30.5391 10.8906C31.1484 10.3698 31.849 10.0312 32.6406 9.875H32.7812C32.724 9.66146 32.6849 9.41927 32.6641 9.14844C32.6484 8.8724 32.6406 8.55469 32.6406 8.19531H34.6719C34.6719 8.55469 34.6615 8.8724 34.6406 9.14844C34.625 9.42448 34.5885 9.67188 34.5312 9.89062H34.6719C35.4635 10.0417 36.1641 10.3776 36.7734 10.8984C37.3828 11.4141 37.8568 12.0781 38.1953 12.8906C38.5339 13.7031 38.7031 14.6172 38.7031 15.6328C38.7031 16.7786 38.487 17.7891 38.0547 18.6641C37.6276 19.5443 37.0286 20.224 36.2578 20.7031C35.4922 21.1823 34.6224 21.4219 33.6484 21.4219C32.6693 21.4219 31.7969 21.1797 31.0312 20.6953C30.2708 20.2161 29.6771 19.5391 29.25 18.6641ZM30.8984 15.6328C30.8984 16.4453 31 17.1562 31.2031 17.7656C31.4062 18.375 31.7135 18.849 32.125 19.1875C32.5365 19.526 33.0443 19.6953 33.6484 19.6953C34.5651 19.6953 35.2552 19.3307 35.7188 18.6016C36.1823 17.8776 36.4141 16.888 36.4141 15.6328C36.4141 14.5911 36.2682 13.7214 35.9766 13.0234C35.6901 12.3203 35.2552 11.8568 34.6719 11.6328L34.4766 11.5234C34.5391 11.8047 34.5938 12.1562 34.6406 12.5781C34.6927 12.9948 34.7188 13.3672 34.7188 13.6953V15.875H32.5938V13.6797C32.5938 13.3464 32.6172 12.9766 32.6641 12.5703C32.7109 12.1589 32.7656 11.8099 32.8281 11.5234L32.6406 11.6172C32.0469 11.8464 31.6068 12.3125 31.3203 13.0156C31.0391 13.7135 30.8984 14.5859 30.8984 15.6328ZM42.1094 17.8203C42.1094 18.1536 42.1667 18.4635 42.2812 18.75C42.3906 19.0365 42.5651 19.2682 42.8047 19.4453C43.0495 19.6224 43.3568 19.7109 43.7266 19.7109C44.2891 19.7109 44.7031 19.526 44.9688 19.1562C45.2396 18.7917 45.375 18.3464 45.375 17.8203V13.5234C45.375 12.8932 45.2604 12.3958 45.0312 12.0312C44.8073 11.6667 44.4271 11.4844 43.8906 11.4844C43.3906 11.4844 43.0156 11.6484 42.7656 11.9766C42.5208 12.3047 42.3984 12.7083 42.3984 13.1875C42.3984 13.4323 42.4271 13.6562 42.4844 13.8594H40.2266C40.1589 13.5521 40.125 13.2943 40.125 13.0859C40.125 12.5026 40.2708 11.9583 40.5625 11.4531C40.8594 10.9479 41.2917 10.5417 41.8594 10.2344C42.4271 9.92708 43.1042 9.77344 43.8906 9.77344C44.7188 9.77344 45.4141 9.9401 45.9766 10.2734C46.5391 10.6068 46.9583 11.0469 47.2344 11.5938C47.5104 12.1354 47.6484 12.7292 47.6484 13.375V17.8438C47.6484 18.5052 47.4948 19.1068 47.1875 19.6484C46.8802 20.1953 46.4297 20.6276 45.8359 20.9453C45.2474 21.263 44.5443 21.4219 43.7266 21.4219C42.8984 21.4219 42.1927 21.2734 41.6094 20.9766C41.026 20.6849 40.5859 20.2786 40.2891 19.7578C39.9922 19.237 39.8438 18.6406 39.8438 17.9688C39.8438 17.4688 39.9375 16.9453 40.125 16.3984H42.3203C42.1797 16.862 42.1094 17.3359 42.1094 17.8203ZM52.4531 9.77344C52.9427 9.77344 53.3724 9.88802 53.7422 10.1172C54.1172 10.3411 54.4036 10.6224 54.6016 10.9609H54.6328V6H56.8984V17.5234C56.8984 18.8151 56.5573 19.7865 55.875 20.4375C55.1979 21.0938 54.224 21.4219 52.9531 21.4219C52.1146 21.4219 51.401 21.276 50.8125 20.9844C50.224 20.6979 49.7786 20.2917 49.4766 19.7656C49.1797 19.2448 49.0312 18.6406 49.0312 17.9531C49.0312 17.6771 49.0547 17.4193 49.1016 17.1797C49.1484 16.9349 49.2214 16.6745 49.3203 16.3984H51.4922C51.4245 16.6328 51.3724 16.8568 51.3359 17.0703C51.3047 17.2786 51.2891 17.5078 51.2891 17.7578C51.2891 18.3568 51.4219 18.8307 51.6875 19.1797C51.9583 19.5339 52.3802 19.7109 52.9531 19.7109C53.5365 19.7109 53.9609 19.5156 54.2266 19.125C54.4974 18.7396 54.6328 18.237 54.6328 17.6172V13.8203C54.6328 13.1432 54.4948 12.5911 54.2188 12.1641C53.9479 11.737 53.5521 11.5234 53.0312 11.5234C52.526 11.5234 52.1589 11.6797 51.9297 11.9922C51.7057 12.2995 51.5938 12.6927 51.5938 13.1719C51.5938 13.3542 51.6198 13.5833 51.6719 13.8594H49.4297C49.3672 13.5781 49.3359 13.2786 49.3359 12.9609C49.3359 12.3724 49.4427 11.8385 49.6562 11.3594C49.875 10.8802 50.2161 10.4974 50.6797 10.2109C51.1484 9.91927 51.7396 9.77344 52.4531 9.77344ZM64.1328 14.4297C64.1328 14.112 64.0833 13.8229 63.9844 13.5625C63.8854 13.2969 63.7448 13.0365 63.5625 12.7812L63.3984 12.5469C63.2057 12.2865 63.0521 12.0547 62.9375 11.8516C62.8229 11.6484 62.7266 11.3958 62.6484 11.0938C62.5703 10.7865 62.5312 10.4219 62.5312 10H64.7578C64.7578 10.6823 65.0208 11.3646 65.5469 12.0469C65.8229 12.4219 66.0365 12.8021 66.1875 13.1875C66.3438 13.5729 66.4219 14.0417 66.4219 14.5938C66.4219 15.3229 66.2526 15.9635 65.9141 16.5156C65.5807 17.0625 65.112 17.4844 64.5078 17.7812C63.9089 18.0781 63.2188 18.2266 62.4375 18.2266C61.6198 18.2266 60.9141 18.0729 60.3203 17.7656C59.7318 17.4531 59.2812 17.0026 58.9688 16.4141C58.6562 15.8255 58.5 15.1224 58.5 14.3047V6H60.7734V14.3203C60.7734 14.9818 60.9141 15.513 61.1953 15.9141C61.4818 16.3151 61.901 16.5156 62.4531 16.5156C63.0156 16.5156 63.4349 16.3255 63.7109 15.9453C63.9922 15.5651 64.1328 15.0599 64.1328 14.4297ZM68.2812 18.6641C67.8542 17.7891 67.6406 16.7786 67.6406 15.6328C67.6406 14.6172 67.8099 13.7031 68.1484 12.8906C68.487 12.0729 68.9609 11.4062 69.5703 10.8906C70.1797 10.3698 70.8802 10.0312 71.6719 9.875H71.8125C71.7552 9.66146 71.7161 9.41927 71.6953 9.14844C71.6797 8.8724 71.6719 8.55469 71.6719 8.19531H73.7031C73.7031 8.55469 73.6927 8.8724 73.6719 9.14844C73.6562 9.42448 73.6198 9.67188 73.5625 9.89062H73.7031C74.4948 10.0417 75.1953 10.3776 75.8047 10.8984C76.4141 11.4141 76.888 12.0781 77.2266 12.8906C77.5651 13.7031 77.7344 14.6172 77.7344 15.6328C77.7344 16.7786 77.5182 17.7891 77.0859 18.6641C76.6589 19.5443 76.0599 20.224 75.2891 20.7031C74.5234 21.1823 73.6536 21.4219 72.6797 21.4219C71.7005 21.4219 70.8281 21.1797 70.0625 20.6953C69.3021 20.2161 68.7083 19.5391 68.2812 18.6641ZM69.9297 15.6328C69.9297 16.4453 70.0312 17.1562 70.2344 17.7656C70.4375 18.375 70.7448 18.849 71.1562 19.1875C71.5677 19.526 72.0755 19.6953 72.6797 19.6953C73.5964 19.6953 74.2865 19.3307 74.75 18.6016C75.2135 17.8776 75.4453 16.888 75.4453 15.6328C75.4453 14.5911 75.2995 13.7214 75.0078 13.0234C74.7214 12.3203 74.2865 11.8568 73.7031 11.6328L73.5078 11.5234C73.5703 11.8047 73.625 12.1562 73.6719 12.5781C73.724 12.9948 73.75 13.3672 73.75 13.6953V15.875H71.625V13.6797C71.625 13.3464 71.6484 12.9766 71.6953 12.5703C71.7422 12.1589 71.7969 11.8099 71.8594 11.5234L71.6719 11.6172C71.0781 11.8464 70.638 12.3125 70.3516 13.0156C70.0703 13.7135 69.9297 14.5859 69.9297 15.6328ZM86.3828 11.8359C86.6849 12.4766 86.8359 13.2083 86.8359 14.0312C86.8359 14.8594 86.7578 15.5755 86.6016 16.1797C86.4453 16.7786 86.2109 17.3854 85.8984 18H83.6719C83.9688 17.3594 84.1901 16.7474 84.3359 16.1641C84.4818 15.5755 84.5547 14.8906 84.5547 14.1094C84.5547 13.3385 84.4245 12.7083 84.1641 12.2188C83.9089 11.7292 83.4844 11.4844 82.8906 11.4844C82.3021 11.4844 81.8802 11.7292 81.625 12.2188C81.3698 12.7031 81.2422 13.3333 81.2422 14.1094C81.2422 14.8906 81.3151 15.5729 81.4609 16.1562C81.6068 16.7396 81.8255 17.3542 82.1172 18H79.8984C79.5755 17.3958 79.3359 16.7943 79.1797 16.1953C79.0286 15.5911 78.9531 14.8698 78.9531 14.0312C78.9531 13.2135 79.1042 12.4844 79.4062 11.8438C79.7135 11.1979 80.1615 10.6927 80.75 10.3281C81.3438 9.95833 82.0573 9.77344 82.8906 9.77344C83.724 9.77344 84.4375 9.95833 85.0312 10.3281C85.625 10.6927 86.0755 11.1953 86.3828 11.8359ZM93.8828 14.4297C93.8828 14.112 93.8333 13.8229 93.7344 13.5625C93.6354 13.2969 93.4948 13.0365 93.3125 12.7812L93.1484 12.5469C92.9557 12.2865 92.8021 12.0547 92.6875 11.8516C92.5729 11.6484 92.4766 11.3958 92.3984 11.0938C92.3203 10.7865 92.2812 10.4219 92.2812 10H94.5078C94.5078 10.6823 94.7708 11.3646 95.2969 12.0469C95.5729 12.4219 95.7865 12.8021 95.9375 13.1875C96.0938 13.5729 96.1719 14.0417 96.1719 14.5938C96.1719 15.3229 96.0026 15.9635 95.6641 16.5156C95.3307 17.0625 94.862 17.4844 94.2578 17.7812C93.6589 18.0781 92.9688 18.2266 92.1875 18.2266C91.3698 18.2266 90.6641 18.0729 90.0703 17.7656C89.4818 17.4531 89.0312 17.0026 88.7188 16.4141C88.4062 15.8255 88.25 15.1224 88.25 14.3047V6H90.5234V14.3203C90.5234 14.9818 90.6641 15.513 90.9453 15.9141C91.2318 16.3151 91.651 16.5156 92.2031 16.5156C92.7656 16.5156 93.1849 16.3255 93.4609 15.9453C93.7422 15.5651 93.8828 15.0599 93.8828 14.4297ZM104.93 7.07031H104.977C105.169 6.63802 105.466 6.3151 105.867 6.10156C106.273 5.88281 106.703 5.77344 107.156 5.77344C108.245 5.77344 109.023 6.05208 109.492 6.60938C109.961 7.16146 110.195 7.91927 110.195 8.88281V14.0938C110.195 14.9219 110.039 15.6458 109.727 16.2656C109.414 16.8854 108.948 17.3672 108.328 17.7109C107.714 18.0547 106.958 18.2266 106.062 18.2266C105.172 18.2266 104.422 18.0521 103.812 17.7031C103.203 17.3542 102.745 16.8672 102.438 16.2422C102.135 15.612 101.984 14.8802 101.984 14.0469C101.984 13.2031 102.125 12.4766 102.406 11.8672C102.693 11.2578 103.094 10.7943 103.609 10.4766C104.125 10.1589 104.727 10 105.414 10C105.94 10 106.419 10.099 106.852 10.2969C107.289 10.4948 107.641 10.7734 107.906 11.1328H107.938V8.85156C107.938 7.90885 107.581 7.4375 106.867 7.4375C106.544 7.4375 106.297 7.54427 106.125 7.75781C105.958 7.97135 105.875 8.22396 105.875 8.51562V9.00781H103.797V8.51562C103.797 8.17708 103.695 7.93229 103.492 7.78125C103.289 7.63021 103.01 7.55469 102.656 7.55469C102.406 7.55469 102.135 7.57031 101.844 7.60156V5.92188C102.276 5.86979 102.664 5.84375 103.008 5.84375C103.471 5.84375 103.865 5.9401 104.188 6.13281C104.516 6.32031 104.763 6.63281 104.93 7.07031ZM104.742 15.875C105.06 16.3021 105.508 16.5156 106.086 16.5156C106.482 16.5156 106.823 16.4193 107.109 16.2266C107.401 16.0286 107.625 15.7526 107.781 15.3984C107.938 15.0391 108.016 14.6198 108.016 14.1406C108.016 13.3385 107.849 12.7318 107.516 12.3203C107.182 11.9036 106.711 11.6953 106.102 11.6953C105.497 11.6953 105.039 11.9089 104.727 12.3359C104.414 12.7578 104.258 13.3594 104.258 14.1406C104.258 14.875 104.419 15.4531 104.742 15.875ZM113.797 17.8203C113.797 18.1536 113.854 18.4635 113.969 18.75C114.078 19.0365 114.253 19.2682 114.492 19.4453C114.737 19.6224 115.044 19.7109 115.414 19.7109C115.977 19.7109 116.391 19.526 116.656 19.1562C116.927 18.7917 117.062 18.3464 117.062 17.8203V13.5234C117.062 12.8932 116.948 12.3958 116.719 12.0312C116.495 11.6667 116.115 11.4844 115.578 11.4844C115.078 11.4844 114.703 11.6484 114.453 11.9766C114.208 12.3047 114.086 12.7083 114.086 13.1875C114.086 13.4323 114.115 13.6562 114.172 13.8594H111.914C111.846 13.5521 111.812 13.2943 111.812 13.0859C111.812 12.5026 111.958 11.9583 112.25 11.4531C112.547 10.9479 112.979 10.5417 113.547 10.2344C114.115 9.92708 114.792 9.77344 115.578 9.77344C116.406 9.77344 117.102 9.9401 117.664 10.2734C118.227 10.6068 118.646 11.0469 118.922 11.5938C119.198 12.1354 119.336 12.7292 119.336 13.375V17.8438C119.336 18.5052 119.182 19.1068 118.875 19.6484C118.568 20.1953 118.117 20.6276 117.523 20.9453C116.935 21.263 116.232 21.4219 115.414 21.4219C114.586 21.4219 113.88 21.2734 113.297 20.9766C112.714 20.6849 112.273 20.2786 111.977 19.7578C111.68 19.237 111.531 18.6406 111.531 17.9688C111.531 17.4688 111.625 16.9453 111.812 16.3984H114.008C113.867 16.862 113.797 17.3359 113.797 17.8203ZM123.297 12.0938C123.094 12.5 122.992 13.1094 122.992 13.9219C122.992 14.6667 123.133 15.3359 123.414 15.9297C123.701 16.5234 124.091 17.0156 124.586 17.4062C125.081 17.7969 125.641 18.0755 126.266 18.2422C127.021 18.4349 127.641 18.6484 128.125 18.8828C128.609 19.1172 128.987 19.4193 129.258 19.7891C129.529 20.1641 129.664 20.6354 129.664 21.2031H127.18C127.18 20.9219 127.081 20.6667 126.883 20.4375C126.69 20.2083 126.396 20.026 126 19.8906C125.604 19.7604 125.117 19.6953 124.539 19.6953H121.758V18.1406H123.258V18.0781C122.695 17.8698 122.224 17.5547 121.844 17.1328C121.464 16.7057 121.18 16.2135 120.992 15.6562C120.81 15.0938 120.719 14.5052 120.719 13.8906C120.719 13.0156 120.846 12.2708 121.102 11.6562C121.357 11.0417 121.724 10.5755 122.203 10.2578C122.682 9.9349 123.258 9.77344 123.93 9.77344C124.529 9.77344 125.049 9.89844 125.492 10.1484C125.94 10.3932 126.268 10.7708 126.477 11.2812H126.539C126.826 10.7812 127.214 10.4062 127.703 10.1562C128.198 9.90104 128.776 9.77344 129.438 9.77344C130.172 9.77344 130.823 9.95312 131.391 10.3125C131.964 10.6719 132.406 11.1641 132.719 11.7891C133.036 12.4089 133.195 13.1042 133.195 13.875C133.195 14.651 133.034 15.3438 132.711 15.9531C132.393 16.5573 131.938 17.0286 131.344 17.3672C130.755 17.7057 130.068 17.875 129.281 17.875C128.5 17.875 127.815 17.7031 127.227 17.3594C126.638 17.0104 126.185 16.5339 125.867 15.9297C125.549 15.3203 125.391 14.6354 125.391 13.875V13.0547C125.391 12.5859 125.289 12.2083 125.086 11.9219C124.888 11.6302 124.609 11.4844 124.25 11.4844C123.818 11.4844 123.5 11.6875 123.297 12.0938ZM127.75 15.0078C127.875 15.362 128.065 15.6458 128.32 15.8594C128.581 16.0729 128.901 16.1797 129.281 16.1797C129.661 16.1797 129.982 16.0755 130.242 15.8672C130.508 15.6536 130.703 15.3724 130.828 15.0234C130.958 14.6693 131.023 14.2812 131.023 13.8594C131.023 13.4219 130.961 13.0234 130.836 12.6641C130.711 12.2995 130.516 12.0104 130.25 11.7969C129.99 11.5781 129.667 11.4688 129.281 11.4688C128.906 11.4688 128.589 11.5781 128.328 11.7969C128.073 12.0156 127.88 12.3073 127.75 12.6719C127.625 13.0312 127.562 13.4271 127.562 13.8594C127.562 14.276 127.625 14.6589 127.75 15.0078ZM136.93 11.0156C136.773 10.6823 136.695 10.2682 136.695 9.77344H138.945C138.977 10.013 139.047 10.2266 139.156 10.4141C139.271 10.5964 139.401 10.7552 139.547 10.8906C139.698 11.0208 139.909 11.1875 140.18 11.3906C140.555 11.6771 140.872 11.9609 141.133 12.2422C141.393 12.5182 141.607 12.862 141.773 13.2734C141.94 13.6849 142.023 14.1667 142.023 14.7188C142.023 15.3333 141.87 15.9089 141.562 16.4453C141.255 16.9818 140.81 17.4141 140.227 17.7422C139.648 18.0651 138.966 18.2266 138.18 18.2266C137.346 18.2266 136.646 18.0781 136.078 17.7812C135.51 17.4792 135.086 17.0677 134.805 16.5469C134.529 16.026 134.391 15.4323 134.391 14.7656C134.391 14.3594 134.443 14.0026 134.547 13.6953H136.727C136.659 14.0234 136.625 14.3333 136.625 14.625C136.625 14.9583 136.68 15.2682 136.789 15.5547C136.904 15.8411 137.078 16.0729 137.312 16.25C137.547 16.4271 137.841 16.5156 138.195 16.5156C138.555 16.5156 138.849 16.4323 139.078 16.2656C139.312 16.0938 139.482 15.875 139.586 15.6094C139.695 15.3438 139.75 15.0573 139.75 14.75C139.75 14.3802 139.693 14.0625 139.578 13.7969C139.464 13.526 139.31 13.2943 139.117 13.1016C138.93 12.9089 138.688 12.7057 138.391 12.4922C138.005 12.2266 137.703 11.9974 137.484 11.8047C137.266 11.612 137.081 11.349 136.93 11.0156ZM146.859 8.9375C146.411 9.09896 146.016 9.33333 145.672 9.64062C145.328 9.94271 145.091 10.3385 144.961 10.8281H145.008C145.242 10.4792 145.518 10.2214 145.836 10.0547C146.159 9.88802 146.503 9.80469 146.867 9.80469C147.336 9.80469 147.711 9.92448 147.992 10.1641C148.279 10.4036 148.516 10.7604 148.703 11.2344H148.766C148.938 10.7917 149.24 10.4427 149.672 10.1875C150.104 9.93229 150.586 9.80469 151.117 9.80469C151.789 9.80469 152.365 9.97396 152.844 10.3125C153.323 10.6458 153.685 11.1172 153.93 11.7266C154.18 12.3307 154.305 13.0365 154.305 13.8438C154.305 14.7344 154.211 15.5104 154.023 16.1719C153.836 16.8281 153.552 17.4375 153.172 18H150.852C151.242 17.3698 151.534 16.724 151.727 16.0625C151.919 15.3958 152.016 14.6719 152.016 13.8906C152.016 13.0573 151.911 12.4557 151.703 12.0859C151.495 11.7109 151.177 11.5234 150.75 11.5234C150.432 11.5234 150.195 11.6693 150.039 11.9609C149.888 12.2474 149.812 12.6432 149.812 13.1484V15.875H147.695V13.1484C147.695 12.0651 147.391 11.5234 146.781 11.5234C146.359 11.5234 146.044 11.7161 145.836 12.1016C145.628 12.4818 145.523 13.0885 145.523 13.9219C145.523 15.3698 145.911 16.7292 146.688 18H144.383C144.013 17.4583 143.729 16.7786 143.531 15.9609C143.333 15.1432 143.234 14.1328 143.234 12.9297C143.234 11.0651 143.635 9.65104 144.438 8.6875C145.24 7.71875 146.375 7.08333 147.844 6.78125L149.297 6.47656C149.464 6.4401 149.607 6.3776 149.727 6.28906C149.846 6.20052 149.927 6.10417 149.969 6H152.273C152.232 6.41667 152.122 6.77083 151.945 7.0625C151.773 7.35417 151.518 7.59635 151.18 7.78906C150.841 7.98177 150.401 8.13281 149.859 8.24219L148.414 8.53125C147.82 8.64583 147.302 8.78125 146.859 8.9375ZM157.719 17.8203C157.719 18.1536 157.776 18.4635 157.891 18.75C158 19.0365 158.174 19.2682 158.414 19.4453C158.659 19.6224 158.966 19.7109 159.336 19.7109C159.898 19.7109 160.312 19.526 160.578 19.1562C160.849 18.7917 160.984 18.3464 160.984 17.8203V13.5234C160.984 12.8932 160.87 12.3958 160.641 12.0312C160.417 11.6667 160.036 11.4844 159.5 11.4844C159 11.4844 158.625 11.6484 158.375 11.9766C158.13 12.3047 158.008 12.7083 158.008 13.1875C158.008 13.4323 158.036 13.6562 158.094 13.8594H155.836C155.768 13.5521 155.734 13.2943 155.734 13.0859C155.734 12.5026 155.88 11.9583 156.172 11.4531C156.469 10.9479 156.901 10.5417 157.469 10.2344C158.036 9.92708 158.714 9.77344 159.5 9.77344C160.328 9.77344 161.023 9.9401 161.586 10.2734C162.148 10.6068 162.568 11.0469 162.844 11.5938C163.12 12.1354 163.258 12.7292 163.258 13.375V17.8438C163.258 18.5052 163.104 19.1068 162.797 19.6484C162.49 20.1953 162.039 20.6276 161.445 20.9453C160.857 21.263 160.154 21.4219 159.336 21.4219C158.508 21.4219 157.802 21.2734 157.219 20.9766C156.635 20.6849 156.195 20.2786 155.898 19.7578C155.602 19.237 155.453 18.6406 155.453 17.9688C155.453 17.4688 155.547 16.9453 155.734 16.3984H157.93C157.789 16.862 157.719 17.3359 157.719 17.8203ZM167.531 8.36719C167.396 8.28385 167.221 8.19792 167.008 8.10938C166.747 8.00521 166.529 7.88542 166.352 7.75C166.18 7.61458 166.034 7.40625 165.914 7.125C165.799 6.84375 165.742 6.46875 165.742 6H167.852C167.872 6.22396 167.932 6.41406 168.031 6.57031C168.135 6.72135 168.255 6.84635 168.391 6.94531C168.526 7.03906 168.706 7.14583 168.93 7.26562C169.216 7.41146 169.443 7.54427 169.609 7.66406C169.776 7.78385 169.917 7.95573 170.031 8.17969C170.151 8.40365 170.211 8.6901 170.211 9.03906V10.0156C170.773 10.1927 171.255 10.4714 171.656 10.8516C172.062 11.2318 172.37 11.6927 172.578 12.2344C172.792 12.7708 172.898 13.3646 172.898 14.0156C172.898 14.8385 172.732 15.5677 172.398 16.2031C172.07 16.8385 171.594 17.3359 170.969 17.6953C170.349 18.0495 169.615 18.2266 168.766 18.2266C167.917 18.2266 167.18 18.0495 166.555 17.6953C165.935 17.3411 165.461 16.8464 165.133 16.2109C164.805 15.5755 164.641 14.8438 164.641 14.0156C164.641 13.276 164.773 12.612 165.039 12.0234C165.305 11.4349 165.69 10.9557 166.195 10.5859C166.701 10.2109 167.302 9.97396 168 9.875V9.28125C168 9.05208 167.956 8.86458 167.867 8.71875C167.779 8.56771 167.667 8.45052 167.531 8.36719ZM167.117 12.7578C166.982 13.1328 166.914 13.5521 166.914 14.0156C166.914 14.474 166.979 14.8932 167.109 15.2734C167.245 15.6484 167.451 15.9505 167.727 16.1797C168.008 16.4036 168.354 16.5156 168.766 16.5156C169.177 16.5156 169.521 16.4036 169.797 16.1797C170.078 15.9505 170.286 15.6484 170.422 15.2734C170.557 14.8932 170.625 14.474 170.625 14.0156C170.625 13.5469 170.557 13.125 170.422 12.75C170.286 12.375 170.078 12.0781 169.797 11.8594C169.521 11.6354 169.172 11.5234 168.75 11.5234C168.349 11.5234 168.01 11.6354 167.734 11.8594C167.458 12.0833 167.253 12.3828 167.117 12.7578ZM176.617 11.0156C176.461 10.6823 176.383 10.2682 176.383 9.77344H178.633C178.664 10.013 178.734 10.2266 178.844 10.4141C178.958 10.5964 179.089 10.7552 179.234 10.8906C179.385 11.0208 179.596 11.1875 179.867 11.3906C180.242 11.6771 180.56 11.9609 180.82 12.2422C181.081 12.5182 181.294 12.862 181.461 13.2734C181.628 13.6849 181.711 14.1667 181.711 14.7188C181.711 15.3333 181.557 15.9089 181.25 16.4453C180.943 16.9818 180.497 17.4141 179.914 17.7422C179.336 18.0651 178.654 18.2266 177.867 18.2266C177.034 18.2266 176.333 18.0781 175.766 17.7812C175.198 17.4792 174.773 17.0677 174.492 16.5469C174.216 16.026 174.078 15.4323 174.078 14.7656C174.078 14.3594 174.13 14.0026 174.234 13.6953H176.414C176.346 14.0234 176.312 14.3333 176.312 14.625C176.312 14.9583 176.367 15.2682 176.477 15.5547C176.591 15.8411 176.766 16.0729 177 16.25C177.234 16.4271 177.529 16.5156 177.883 16.5156C178.242 16.5156 178.536 16.4323 178.766 16.2656C179 16.0938 179.169 15.875 179.273 15.6094C179.383 15.3438 179.438 15.0573 179.438 14.75C179.438 14.3802 179.38 14.0625 179.266 13.7969C179.151 13.526 178.997 13.2943 178.805 13.1016C178.617 12.9089 178.375 12.7057 178.078 12.4922C177.693 12.2266 177.391 11.9974 177.172 11.8047C176.953 11.612 176.768 11.349 176.617 11.0156Z" fill="#132450"/>
<g clip-path="url(#clip0_6090_1002)">
<path d="M191.323 9.66797L194 12.3396L196.678 9.66797L197.5 10.4905L194 13.9905L190.5 10.4905L191.323 9.66797Z" fill="#132450" fill-opacity="0.7"/>
</g>
<defs>
<clipPath id="clip0_6090_1002">
<rect width="14" height="14" fill="white" transform="matrix(-1 0 0 1 201 5)"/>
</clipPath>
</defs>
</svg>
